<svg width="40" height="37" viewBox="0 0 40 37" fill="none" xmlns="http://www.w3.org/2000/svg">
<path d="M14.8422 11.7376C15.0124 11.5684 15.1474 11.3671 15.2395 11.1455C15.3316 10.9239 15.3789 10.6862 15.3787 10.4462C15.3785 10.2062 15.3308 9.96861 15.2384 9.74713C15.1459 9.52564 15.0106 9.32464 14.8401 9.15568C14.6696 8.98675 14.4674 8.85321 14.2451 8.76278C14.0228 8.67234 13.7848 8.62679 13.5448 8.62874C13.3048 8.63071 13.0676 8.68014 12.8468 8.77419C12.626 8.86826 12.426 9.00509 12.2583 9.1768C10.7428 10.7077 9.71522 12.6535 9.30541 14.7683C8.89559 16.8831 9.12196 19.0719 9.9559 21.0581C10.7898 23.0442 12.1939 24.7386 13.9906 25.9269C15.7873 27.1154 17.896 27.7444 20.0501 27.7344C22.2041 27.7247 24.3071 27.0764 26.0928 25.8716C27.8786 24.6669 29.2671 22.9597 30.0827 20.9659C30.8985 18.9722 31.1049 16.7814 30.6756 14.6705C30.2464 12.5595 29.2011 10.6232 27.6717 9.10623C27.502 8.93808 27.3009 8.805 27.0796 8.71461C26.8585 8.62421 26.6218 8.57826 26.3828 8.57937C26.1439 8.58047 25.9075 8.62863 25.6872 8.72109C25.4669 8.81353 25.2671 8.94846 25.0988 9.11818C24.9307 9.28788 24.7976 9.48906 24.7074 9.7102C24.6169 9.93134 24.571 10.1681 24.572 10.407C24.5731 10.6459 24.6213 10.8823 24.7137 11.1026C24.8062 11.3229 24.9412 11.5228 25.1109 11.6909C26.1307 12.7018 26.8281 13.9923 27.1146 15.3994C27.4011 16.8065 27.2638 18.267 26.7203 19.5961C26.1768 20.9252 25.2514 22.0634 24.061 22.8666C22.8708 23.6698 21.469 24.102 20.0331 24.1086C18.5971 24.1151 17.1914 23.6958 15.9938 22.9035C14.7962 22.1112 13.8603 20.9816 13.3047 19.6575C12.749 18.3335 12.5985 16.8743 12.872 15.4647C13.1456 14.055 13.831 12.7581 14.8417 11.738L14.8422 11.7376Z" fill="url(#paint0_linear_49_10437)"/>
<path d="M27.6408 0.000239871C26.446 0.00240166 25.2634 0.241541 24.1615 0.703818C23.0596 1.16609 22.0604 1.84233 21.2217 2.69337C20.8818 3.03558 20.4202 3.22901 19.9379 3.23119C19.4556 3.23339 18.9921 3.04416 18.6492 2.70503C16.9344 1.00986 14.6172 0.064053 12.2059 0.0750948C9.79471 0.0861368 7.48628 1.05312 5.78706 2.76393C3.00462 5.57446 1.1179 9.14683 0.365391 13.0294C-0.387118 16.9121 0.0283688 20.9307 1.55934 24.5771C3.0903 28.2237 5.66802 31.3345 8.96662 33.5163C12.2652 35.6981 16.1366 36.8529 20.0915 36.8348C24.0464 36.8168 27.907 35.6265 31.1855 33.4147C34.4642 31.2029 37.0133 28.0686 38.5108 24.4084C40.0084 20.7481 40.3872 16.7258 39.5992 12.8502C38.8113 8.97462 36.8921 5.41964 34.084 2.63466C33.2376 1.79135 32.2323 1.12428 31.1262 0.672084C30.0203 0.219885 28.8356 -0.00846598 27.6408 0.000239871ZM31.5228 5.21879C33.823 7.49788 35.3955 10.4078 36.0416 13.5807C36.6878 16.7535 36.3788 20.0466 35.1534 23.0438C33.9279 26.041 31.8414 28.6073 29.1573 30.4187C26.4733 32.2299 23.3124 33.2046 20.0745 33.2193C16.8366 33.2342 13.6669 32.2886 10.9665 30.5019C8.266 28.7154 6.15593 26.168 4.90315 23.1823C3.65036 20.1965 3.31111 16.9062 3.92828 13.7276C4.54545 10.549 6.09133 7.62477 8.37043 5.32473C9.39006 4.29825 10.7752 3.71807 12.222 3.71143C13.6688 3.7048 15.0592 4.27226 16.0882 5.28935C17.117 6.30652 18.5072 6.87404 19.954 6.86747C21.4007 6.86087 22.7856 6.28067 23.805 5.25417C24.8237 4.22618 26.2092 3.64492 27.6565 3.63829C29.1037 3.63165 30.4944 4.20017 31.5224 5.21879" fill="url(#paint1_linear_49_10437)"/>
<path d="M19.9999 20.0679C21.6323 20.0679 22.9554 18.7446 22.9554 17.1124C22.9554 15.4801 21.6323 14.1569 19.9999 14.1569C18.3677 14.1569 17.0444 15.4801 17.0444 17.1124C17.0444 18.7446 18.3677 20.0679 19.9999 20.0679Z" fill="url(#paint2_linear_49_10437)"/>
<defs>
<linearGradient id="paint0_linear_49_10437" x1="20.0002" y1="38.768" x2="20.0002" y2="0.112748" gradientUnits="userSpaceOnUse">
<stop stop-color="#00CD9E"/>
<stop offset="1" stop-color="#38A3DC"/>
</linearGradient>
<linearGradient id="paint1_linear_49_10437" x1="20.0001" y1="38.7505" x2="20.0001" y2="0.110504" gradientUnits="userSpaceOnUse">
<stop stop-color="#00CD9E"/>
<stop offset="1" stop-color="#38A3DC"/>
</linearGradient>
<linearGradient id="paint2_linear_49_10437" x1="19.9999" y1="38.7821" x2="19.9999" y2="0.112295" gradientUnits="userSpaceOnUse">
<stop stop-color="#00AB9E"/>
<stop offset="1" stop-color="#38A3DC"/>
</linearGradient>
</defs>
</svg>
